<svg id="Layer_1" height="512" viewBox="0 0 24 24" width="512" xmlns="http://www.w3.org/2000/svg" data-name="Layer 1"><path d="m10.69141 2.5h-4.69141a2.50263 2.50263 0 0 0 -2.5 2.5v14a2.50263 2.50263 0 0 0 2.5 2.5h5a9.53609 9.53609 0 0 0 6.93262-3.00488 9.42342 9.42342 0 0 0 2.54687-7.12647 9.68112 9.68112 0 0 0 -9.78808-8.86865zm6.51171 15.31152a8.42083 8.42083 0 0 1 -6.20312 2.68848h-5a1.50164 1.50164 0 0 1 -1.5-1.5v-14a1.50164 1.50164 0 0 1 1.5-1.5h4.69141a8.67916 8.67916 0 0 1 8.79 7.93311 8.43369 8.43369 0 0 1 -2.27829 6.37841z"/></svg>