<svg enable-background="new 0 0 32 32" height="32" viewBox="0 0 32 32" width="32" xmlns="http://www.w3.org/2000/svg"><g id="LinkedIn" fill="#263238"><path d="m4.983 8.875h-.043c-2.283 0-3.94-1.514-3.94-3.6 0-2.089 1.692-3.606 4.023-3.606 2.292 0 3.928 1.476 3.977 3.589 0 2.101-1.689 3.617-4.017 3.617zm.04-6.206c-1.78 0-3.023 1.072-3.023 2.606 0 1.531 1.209 2.601 2.94 2.601h.043c1.777-.001 3.017-1.072 3.017-2.606-.037-1.576-1.205-2.601-2.977-2.601z"/><path d="m7.5 29h-5c-.276 0-.5-.224-.5-.5v-18c0-.276.224-.5.5-.5h5c.276 0 .5.224.5.5v18c0 .276-.224.5-.5.5zm-4.5-1h4v-17h-4z"/><path d="m30.5 29h-6c-.276 0-.5-.224-.5-.5v-9.5c0-1.654-1.346-3-3-3s-3 1.346-3 3v9.5c0 .276-.224.5-.5.5h-6c-.276 0-.5-.224-.5-.5v-18c0-.276.224-.5.5-.5h6c.276 0 .5.224.5.5v3.014c0 .276-.224.5-.5.5s-.5-.224-.5-.5v-2.514h-5v17h5v-9c0-2.206 1.794-4 4-4s4 1.794 4 4v9h5v-10.5c0-3.584-2.916-6.5-6.5-6.5-1.384 0-2.722.406-3.871 1.173-.229.152-.54.092-.693-.138s-.092-.54.139-.693c1.313-.878 2.843-1.342 4.425-1.342 4.136 0 7.5 3.364 7.5 7.5v11c0 .276-.224.5-.5.5z"/></g></svg>