<svg enable-background="new 0 0 32 32" height="32" viewBox="0 0 32 32" width="32" xmlns="http://www.w3.org/2000/svg"><g id="Gmail"><path d="m27 27c-.276 0-.5-.224-.5-.5v-13c0-.276.224-.5.5-.5s.5.224.5.5v13c0 .276-.224.5-.5.5z" fill="#263238"/><path d="m5 27c-.276 0-.5-.224-.5-.5v-13c0-.276.224-.5.5-.5s.5.224.5.5v13c0 .276-.224.5-.5.5z" fill="#263238"/><g><path d="m16 14.432c-.099 0-.197-.029-.282-.087l-12.165-8.324c-.228-.156-.286-.467-.13-.695s.466-.287.695-.13l11.882 8.13 8.958-6.129c.229-.156.54-.097.695.13.156.228.098.539-.13.695l-9.24 6.322c-.086.059-.184.088-.283.088z" fill="#263238"/></g><g><path d="m28.5 27h-25c-1.378 0-2.5-1.122-2.5-2.5v-17c0-.276.224-.5.5-.5s.5.224.5.5v17c0 .827.673 1.5 1.5 1.5h25c.827 0 1.5-.673 1.5-1.5v-17c0-.827-.673-1.5-1.5-1.5-.276 0-.5-.224-.5-.5s.224-.5.5-.5c1.378 0 2.5 1.122 2.5 2.5v17c0 1.378-1.122 2.5-2.5 2.5z" fill="#263238"/></g><g><path d="m16 19c-.099 0-.198-.029-.284-.088l-13.65-9.414c-.668-.46-1.066-1.22-1.066-2.031 0-1.36 1.107-2.467 2.467-2.467h25.065c1.361 0 2.468 1.107 2.468 2.467 0 .811-.398 1.57-1.066 2.031l-13.65 9.414c-.086.059-.185.088-.284.088zm-12.533-13c-.809 0-1.467.658-1.467 1.467 0 .483.237.934.634 1.208l13.366 9.218 13.366-9.218c.397-.274.634-.725.634-1.208 0-.809-.658-1.467-1.467-1.467z" fill="#263238"/></g></g></svg>